<?xml version="1.0" standalone="no"?>
<!DOCTYPE svg PUBLIC "-//W3C//DTD SVG 20010904//EN"
 "http://www.w3.org/TR/2001/REC-SVG-20010904/DTD/svg10.dtd">
<svg version="1.0" xmlns="http://www.w3.org/2000/svg"
 width="512.000000pt" height="512.000000pt" viewBox="0 0 512.000000 512.000000"
 preserveAspectRatio="xMidYMid meet">
<metadata>
Created by potrace 1.14, written by Peter Selinger 2001-2017
</metadata>
<g transform="translate(0.000000,512.000000) scale(0.100000,-0.100000)"
fill="#000000" stroke="none">
<path d="M0 2560 l0 -2560 498 0 497 0 25 40 c37 59 261 243 326 267 28 10
127 47 264 99 36 14 108 49 160 78 52 30 117 61 143 70 111 37 123 50 186 205
40 99 42 107 31 150 -6 25 -33 80 -60 122 -51 80 -90 196 -111 329 -12 76 -8
98 29 153 24 35 28 54 33 146 6 97 22 192 51 311 9 37 28 62 112 145 56 55
117 121 137 146 43 53 85 69 181 69 143 0 230 -51 435 -255 120 -120 143 -149
153 -186 6 -24 19 -73 30 -109 10 -36 21 -85 25 -110 3 -27 20 -67 41 -99 l36
-54 -4 -101 c-6 -121 -16 -152 -115 -356 -97 -198 -101 -222 -47 -327 57 -112
90 -140 220 -186 145 -51 276 -92 407 -128 116 -31 141 -42 227 -98 156 -101
200 -148 240 -259 l23 -62 473 0 474 0 0 2560 0 2560 -2560 0 -2560 0 0 -2560z
m1540 1534 l0 -125 50 60 c44 53 55 61 85 61 19 0 35 -3 35 -6 0 -3 -25 -33
-55 -66 l-54 -60 60 -72 60 -71 -38 -3 c-40 -4 -49 3 -115 88 l-28 35 0 -62 0
-63 -35 0 -35 0 0 205 0 205 35 0 35 0 0 -126z m750 -79 l0 -205 -30 0 c-20 0
-30 5 -30 15 0 19 -9 19 -31 -1 -25 -23 -89 -23 -123 -1 -49 32 -70 119 -45
184 26 69 95 103 157 78 42 -18 39 -19 39 3 0 9 1 43 2 75 1 56 1 57 31 57
l30 0 0 -205z m990 191 c6 -8 10 -25 8 -38 -6 -42 -78 -32 -78 11 0 37 46 55
70 27z m150 -191 l0 -205 -35 0 -35 0 0 205 0 205 35 0 35 0 0 -205z m274 183
c22 -35 -27 -74 -59 -48 -20 17 -19 47 3 59 23 14 42 10 56 -11z m-987 -35
c21 -51 133 -345 133 -350 0 -2 -19 -3 -41 -1 -39 3 -42 6 -58 48 l-17 45 -71
3 -72 3 -13 -48 c-13 -47 -15 -48 -56 -51 l-42 -3 20 53 c12 29 41 105 64 168
24 63 49 127 55 143 9 22 17 27 46 27 32 0 38 -4 52 -37z m1283 -33 c0 -38 2
-40 30 -40 27 0 30 -3 30 -30 0 -27 -3 -30 -30 -30 l-31 0 3 -82 3 -83 28 0
c25 1 28 -2 25 -30 -3 -27 -7 -30 -39 -33 -27 -2 -44 3 -63 20 -27 23 -29 29
-35 186 -1 15 -7 22 -21 22 -16 0 -20 7 -20 30 0 23 4 30 20 30 12 0 21 7 22
18 0 9 1 24 2 32 1 13 30 26 64 29 8 1 12 -13 12 -39z m-2770 -59 c32 -23 41
-64 38 -169 l-3 -87 -32 -3 c-24 -2 -33 1 -33 11 0 12 -7 11 -39 -5 -47 -23
-83 -17 -111 19 -24 31 -25 54 -5 93 15 29 44 42 118 55 38 6 47 21 25 43 -17
17 -79 15 -106 -4 -21 -15 -22 -14 -22 15 0 33 8 41 54 52 40 9 85 2 116 -20z
m702 8 c25 -13 46 -58 50 -105 l3 -39 -92 -3 c-101 -3 -113 -12 -73 -52 22
-22 88 -27 121 -10 17 9 19 7 19 -19 0 -32 -7 -36 -71 -46 -35 -5 -54 -1 -89
17 -53 27 -74 74 -67 151 9 97 111 152 199 106z m1126 -1 c8 -7 12 -7 12 1 0
8 13 11 37 9 l36 -3 -2 -155 c-3 -175 -11 -202 -71 -232 -38 -20 -114 -24
-154 -8 -20 7 -26 16 -26 41 0 26 3 30 18 23 9 -4 39 -9 65 -12 40 -3 53 0 73
19 15 14 24 34 24 52 0 29 -1 29 -19 13 -50 -45 -136 -24 -167 42 -22 47 -15
142 13 180 34 46 120 62 161 30z m-2258 -10 l0 -21 23 21 c16 15 36 22 63 22
76 -1 94 -34 94 -175 l0 -106 -32 3 -33 3 -1 90 c-1 106 -12 135 -54 135 -47
0 -60 -30 -60 -137 l0 -93 -30 0 -30 0 0 140 0 140 30 0 c24 0 30 -4 30 -22z
m2490 -118 l0 -140 -34 0 -35 0 -3 124 c-4 158 -4 156 38 156 l34 0 0 -140z
m416 40 c0 -52 -1 -114 -4 -137 -4 -41 -5 -43 -38 -43 l-34 0 0 141 0 140 38
-3 37 -3 1 -95z m473 -2 l34 -103 34 103 35 102 34 0 c19 0 34 -4 34 -9 0 -16
-122 -316 -140 -347 -22 -35 -57 -54 -100 -54 -26 0 -30 4 -30 29 0 26 4 30
32 33 26 2 36 10 49 37 15 33 15 36 -33 154 -68 171 -66 157 -21 157 l39 0 33
-102z m-2785 16 c21 -21 20 -30 -6 -48 -24 -17 -51 -8 -62 20 -14 37 38 59 68
28z m2175 -2 c12 -23 -11 -62 -38 -62 -21 0 -41 19 -41 40 0 39 61 56 79 22z
m275 -4 c14 -23 -3 -52 -32 -56 -29 -5 -60 42 -42 64 17 19 60 14 74 -8z
m-1226 -435 c2 -9 -8 -13 -32 -13 l-36 0 0 -110 c0 -89 -3 -110 -14 -110 -12
0 -15 17 -14 83 0 144 2 137 -32 137 -20 0 -30 5 -30 15 0 13 13 15 77 13 50
-2 78 -7 81 -15z m62 -43 c0 -54 4 -57 76 -52 l43 4 3 49 c2 27 8 49 13 49 6
0 11 -49 13 -120 2 -102 0 -120 -13 -120 -12 0 -15 12 -15 55 l0 55 -60 0 -60
0 0 -55 c0 -42 -3 -55 -15 -55 -12 0 -15 20 -15 118 0 65 3 122 6 125 15 14
24 -7 24 -53z m-560 -32 c13 -46 26 -89 30 -97 4 -8 18 23 34 75 15 49 32 93
36 98 8 8 42 -90 56 -163 9 -42 14 -31 44 82 13 48 27 87 32 87 12 0 3 -41
-31 -148 -14 -46 -30 -84 -35 -85 -5 -1 -21 37 -34 85 -14 48 -28 85 -31 82
-3 -3 -17 -42 -31 -86 -14 -45 -30 -83 -36 -85 -5 -2 -24 46 -42 106 -34 117
-37 131 -23 131 4 0 19 -37 31 -82z m300 -38 c0 -73 -4 -120 -10 -120 -6 0
-10 47 -10 120 0 73 4 120 10 120 6 0 10 -47 10 -120z m-410 -5 l0 -35 -635 0
-635 0 0 35 0 35 635 0 635 0 0 -35z m2368 3 l-3 -33 -727 -3 -728 -2 0 35 0
35 731 0 730 0 -3 -32z m-2 -505 l1 -223 -1818 0 -1819 0 -2 63 c0 34 0 130 0
212 1 83 2 155 2 160 0 7 612 10 1818 10 l1817 0 1 -222z m-2432 -336 c0 -9
-1 -62 -2 -117 -2 -81 -5 -100 -17 -100 -12 0 -15 13 -15 59 0 95 12 182 24
178 6 -2 11 -11 10 -20z m1576 -97 c0 -116 -1 -120 -21 -120 -21 0 -22 3 -15
92 3 50 6 104 6 120 0 18 5 28 15 28 13 0 15 -20 15 -120z m-2539 99 c30 -15
14 -28 -29 -22 -46 6 -65 -12 -60 -59 3 -33 3 -33 56 -33 41 1 52 -2 52 -15 0
-27 -22 -40 -65 -40 -49 0 -74 21 -81 71 -11 75 64 132 127 98z m1287 1 c6 0
12 -7 12 -15 0 -12 -8 -14 -38 -9 -49 8 -74 -14 -70 -60 3 -30 4 -31 56 -31
51 1 53 0 50 -25 -3 -22 -8 -25 -50 -28 -60 -4 -88 20 -88 77 0 22 3 47 6 56
9 22 63 46 89 40 11 -3 26 -5 33 -5z m1552 -10 c0 -16 -7 -20 -35 -20 -46 0
-49 -27 -2 -32 44 -4 44 -32 -1 -36 -31 -3 -33 -6 -30 -35 2 -27 -1 -33 -19
-35 -22 -3 -23 -1 -23 81 0 46 3 87 7 90 3 4 28 7 55 7 41 0 48 -3 48 -20z
m-1160 -25 c0 -8 -7 -15 -15 -15 -8 0 -15 7 -15 15 0 8 7 15 15 15 8 0 15 -7
15 -15z m70 -9 c0 -8 6 -17 13 -20 10 -5 10 -7 0 -12 -18 -8 -16 -61 2 -68 28
-10 16 -27 -17 -24 -31 3 -33 5 -39 53 -3 28 -2 58 3 68 10 20 38 23 38 3z
m549 -8 c10 -16 10 -23 2 -26 -17 -6 -14 -62 4 -62 8 0 15 -7 15 -16 0 -11 -8
-14 -32 -12 -31 3 -33 5 -39 53 -9 76 19 112 50 63z m-428 -9 c15 -7 24 -7 34
1 10 8 19 8 33 1 24 -13 32 -32 32 -77 0 -27 -4 -34 -20 -34 -17 0 -20 7 -20
46 0 59 -24 55 -28 -4 -3 -34 -7 -42 -23 -42 -18 0 -20 6 -18 40 2 21 0 43 -4
47 -12 12 -27 -18 -27 -54 0 -26 -4 -33 -20 -33 -16 0 -20 7 -20 33 0 51 10
76 34 80 11 2 22 5 24 6 2 0 12 -4 23 -10z m193 0 c23 -11 40 -42 28 -53 -3
-3 -21 -6 -39 -6 -22 0 -32 -4 -27 -11 3 -6 17 -9 31 -6 28 5 44 -20 22 -34
-19 -13 -71 -2 -86 18 -20 26 -16 51 12 78 28 29 26 28 59 14z m133 -4 c15
-10 22 -28 25 -60 3 -41 1 -45 -19 -45 -21 0 -23 5 -23 46 0 59 -24 55 -28 -4
-3 -34 -7 -42 -23 -42 -16 0 -19 7 -19 54 0 52 1 55 28 59 15 2 29 5 32 6 3 0
15 -6 27 -14z m751 -1 c33 -23 27 -83 -9 -103 -24 -13 -29 -13 -53 2 -34 23
-37 78 -4 101 28 20 38 20 66 0z m131 7 c19 -12 4 -33 -18 -26 -10 3 -24 -1
-31 -10 -18 -22 5 -47 36 -39 19 5 24 2 24 -14 0 -41 -90 -31 -98 11 -11 58
43 106 87 78z m222 -2 c26 -13 16 -28 -16 -21 -35 6 -31 -11 5 -25 59 -22 23
-82 -41 -68 -20 5 -29 13 -29 27 0 17 5 19 33 14 31 -6 31 -5 5 5 -37 14 -44
40 -18 61 26 21 34 22 61 7z m-3167 -21 c31 -44 9 -88 -43 -88 -33 0 -51 16
-51 48 0 61 62 87 94 40z m62 -15 c-1 -32 2 -38 19 -38 16 0 21 8 23 38 5 56
26 41 30 -21 l3 -52 -44 0 c-50 0 -57 8 -57 71 0 26 4 39 14 39 9 0 13 -12 12
-37z m164 28 c0 -5 -9 -11 -20 -14 -16 -4 -20 -14 -20 -46 0 -30 -4 -41 -15
-41 -16 0 -19 27 -9 79 6 26 11 31 35 31 16 0 29 -4 29 -9z m104 3 c12 -4 16
-20 16 -55 l0 -49 -39 0 c-68 0 -83 60 -17 68 36 5 33 22 -5 22 -17 0 -28 4
-24 10 7 11 45 13 69 4z m146 -62 c0 -81 -17 -112 -61 -112 -23 0 -29 4 -29
21 0 15 4 19 16 15 16 -6 44 9 44 25 0 4 -12 9 -27 11 -17 2 -33 13 -42 29
-13 24 -13 29 2 53 14 21 25 26 57 26 l40 0 0 -68z m120 48 c15 -28 5 -40 -36
-40 -21 0 -33 -4 -29 -10 3 -5 22 -10 41 -10 24 0 34 -4 32 -12 -3 -8 -22 -13
-49 -13 -38 0 -45 3 -53 27 -7 20 -5 33 8 52 21 33 70 36 86 6z m688 8 c17
-17 15 -73 -2 -87 -8 -7 -29 -11 -47 -9 -66 6 -57 108 9 108 16 0 33 -5 40
-12z m203 -15 c5 -13 9 -38 9 -54 0 -23 -4 -29 -21 -29 -19 0 -21 4 -15 39 4
25 2 42 -5 47 -17 10 -31 -11 -31 -50 0 -29 -4 -36 -20 -36 -18 0 -20 4 -13
46 6 41 5 45 -12 42 -13 -2 -19 -14 -21 -46 -3 -34 -7 -42 -23 -42 -21 0 -24
22 -13 78 l6 31 75 -1 c69 0 75 -2 84 -25z m59 -28 c0 -49 -2 -55 -21 -55 -15
0 -19 4 -15 16 3 9 6 33 6 55 0 28 4 39 15 39 12 0 15 -13 15 -55z m1458 20
c-1 -19 1 -37 4 -41 14 -13 28 9 28 42 0 27 4 34 20 34 18 0 20 -7 20 -54 l0
-53 -37 -7 c-48 -8 -73 18 -73 75 0 33 3 39 20 39 17 0 20 -6 18 -35z m-2822
-205 c24 -10 26 -14 21 -51 -4 -30 0 -50 14 -73 24 -39 24 -46 -1 -46 -13 0
-25 12 -34 35 -11 24 -21 35 -36 35 -18 0 -21 -5 -18 -32 2 -24 -1 -33 -14
-36 -16 -3 -18 6 -18 87 l0 91 29 0 c16 0 42 -5 57 -10z m1869 -45 c35 -34 35
-96 0 -130 -53 -54 -135 -15 -135 65 0 51 34 90 80 90 19 0 40 -9 55 -25z
m-1134 -1 c16 -14 16 -17 1 -45 -16 -28 -16 -31 1 -43 24 -19 21 -38 -5 -34
-20 3 -24 11 -30 57 -6 52 -2 81 10 81 3 0 13 -7 23 -16z m-580 -14 c10 -6 19
-20 19 -30 0 -16 -7 -20 -36 -20 -24 0 -34 -4 -31 -12 2 -7 18 -13 36 -13 43
0 38 -29 -5 -33 -58 -6 -86 56 -44 98 23 23 33 24 61 10z m113 4 c22 -8 20
-27 -1 -20 -10 3 -24 2 -32 -3 -11 -7 -6 -13 22 -25 39 -16 47 -35 23 -55 -21
-18 -70 -10 -74 12 -3 15 1 17 22 11 15 -3 26 -2 26 4 0 5 -11 13 -25 16 -29
8 -34 40 -7 55 20 12 25 13 46 5z m134 -10 c15 -10 22 -25 22 -48 0 -39 -15
-56 -52 -56 -21 0 -28 -5 -28 -20 0 -12 -7 -20 -16 -20 -14 0 -15 7 -10 38 3
20 6 54 6 74 0 30 4 37 23 41 12 2 24 5 27 6 3 0 16 -6 28 -15z m132 -4 c30
-30 25 -40 -20 -40 -22 0 -40 -4 -40 -10 0 -11 39 -23 61 -18 8 2 14 -4 14
-12 0 -10 -12 -16 -37 -18 -28 -2 -40 2 -52 20 -22 31 -20 45 9 73 29 30 39
31 65 5z m114 14 c25 -9 19 -22 -11 -26 -18 -2 -29 -10 -31 -22 -5 -22 16 -38
41 -30 12 4 17 0 17 -15 0 -16 -6 -21 -27 -21 -57 0 -83 60 -43 100 21 21 29
23 54 14z m1377 -56 c12 -22 4 -69 -14 -80 -7 -4 -22 -8 -34 -8 -13 0 -24 -8
-28 -21 -6 -18 -28 -24 -26 -6 1 4 1 36 1 71 0 63 1 65 28 68 40 5 61 -2 73
-24z m127 -17 c3 -18 -2 -21 -33 -21 -23 0 -34 -4 -30 -11 4 -5 19 -9 33 -7
19 2 28 -2 30 -14 3 -15 -4 -18 -36 -18 -48 0 -64 17 -60 62 6 62 87 70 96 9z
m130 -25 c2 -36 0 -46 -12 -46 -12 0 -16 11 -16 40 0 27 -5 43 -15 47 -23 8
-29 -3 -27 -47 2 -35 0 -40 -18 -40 -19 0 -21 5 -18 52 3 50 5 53 33 59 47 9
69 -11 73 -65z m125 46 c3 -4 7 -25 8 -47 3 -32 0 -40 -14 -43 -14 -3 -17 4
-17 42 0 39 -3 46 -20 46 -17 0 -20 -7 -20 -45 0 -38 -3 -45 -20 -45 -17 0
-20 7 -20 43 0 23 4 47 8 53 15 24 80 21 95 -4z m115 12 c34 -24 28 -44 -13
-44 -24 0 -35 -5 -35 -15 0 -11 11 -15 36 -15 24 0 34 -4 32 -12 -7 -20 -72
-22 -88 -3 -20 24 -15 67 10 87 27 22 30 22 58 2z m123 6 c5 0 9 -4 9 -10 0
-5 -13 -10 -30 -10 -16 0 -30 -4 -30 -10 0 -5 8 -10 19 -10 24 0 44 -24 39
-47 -5 -26 -81 -26 -86 0 -3 15 1 17 22 11 16 -4 26 -2 26 5 0 6 -6 11 -14 11
-20 0 -37 25 -30 43 6 17 31 27 52 21 8 -2 18 -4 23 -4z m110 0 c5 0 9 -4 9
-10 0 -5 -13 -10 -30 -10 -16 0 -30 -4 -30 -10 0 -5 9 -10 19 -10 31 0 53 -28
40 -51 -8 -16 -19 -19 -47 -17 -25 2 -37 8 -37 18 0 10 8 14 28 12 34 -3 35 5
2 18 -15 6 -25 17 -25 29 0 22 28 43 48 36 8 -3 18 -5 23 -5z"/>
<path d="M2117 4022 c-9 -10 -20 -32 -23 -50 -13 -63 16 -112 65 -112 42 0 66
33 66 90 0 33 -6 54 -19 69 -23 26 -67 27 -89 3z"/>
<path d="M2640 4047 c-14 -39 -24 -74 -23 -77 4 -9 91 -11 95 -3 2 4 -7 41
-22 80 l-26 73 -24 -73z"/>
<path d="M1116 3927 c-11 -8 -17 -23 -14 -38 2 -20 9 -25 41 -27 32 -3 38 0
47 23 17 45 13 55 -23 55 -18 0 -41 -6 -51 -13z"/>
<path d="M1816 4018 c-9 -12 -16 -26 -16 -30 0 -5 27 -8 60 -8 33 0 60 3 60 8
0 23 -34 52 -60 52 -18 0 -34 -8 -44 -22z"/>
<path d="M2970 4022 c-15 -12 -24 -33 -27 -62 -9 -80 57 -130 107 -80 30 30
29 123 -2 144 -29 21 -51 20 -78 -2z"/>
<path d="M1705 3060 c-4 -7 -3 -16 3 -22 14 -14 45 -2 40 15 -6 16 -34 21 -43
7z"/>
<path d="M2340 3050 c0 -15 5 -20 18 -18 9 2 17 10 17 18 0 8 -8 16 -17 18
-13 2 -18 -3 -18 -18z"/>
<path d="M2860 2945 c0 -104 2 -125 15 -125 11 0 15 13 15 53 0 50 19 97 40
97 25 0 40 -34 40 -91 0 -52 2 -60 18 -57 14 3 17 14 15 72 -2 38 -8 75 -14
82 -14 17 -53 18 -80 4 -18 -10 -19 -7 -19 40 0 38 -4 50 -15 50 -13 0 -15
-21 -15 -125z"/>
<path d="M3240 2945 c0 -104 2 -125 15 -125 13 0 15 21 15 125 0 104 -2 125
-15 125 -13 0 -15 -21 -15 -125z"/>
<path d="M4190 3026 l0 -44 -43 5 c-39 5 -46 2 -65 -22 -28 -35 -28 -85 -1
-119 22 -28 65 -35 88 -13 11 10 14 10 18 0 3 -7 11 -13 19 -13 11 0 14 24 14
125 0 104 -2 125 -15 125 -11 0 -15 -12 -15 -44z m-22 -72 c38 -27 23 -104
-21 -104 -13 0 -28 5 -35 12 -17 17 -15 74 4 92 19 20 24 20 52 0z"/>
<path d="M890 2941 c0 -100 3 -121 15 -121 11 0 15 19 17 93 l3 92 38 -92 c21
-51 44 -93 50 -93 7 0 29 42 49 93 l37 92 0 -92 c1 -86 2 -93 21 -93 19 0 20
7 20 121 l0 120 -26 -3 c-23 -3 -31 -15 -61 -91 -20 -48 -38 -85 -42 -82 -3 4
-20 43 -37 88 -27 72 -34 82 -58 85 l-26 3 0 -120z"/>
<path d="M2090 2940 c0 -113 1 -120 20 -120 18 0 20 7 20 55 l0 55 54 0 55 0
3 -52 c2 -41 7 -54 21 -56 15 -3 17 8 17 118 0 110 -2 121 -17 118 -14 -2 -19
-15 -21 -51 l-3 -47 -55 0 -54 0 0 50 c0 43 -3 50 -20 50 -19 0 -20 -7 -20
-120z"/>
<path d="M1603 3033 c-7 -2 -13 -13 -13 -24 0 -10 -4 -19 -10 -19 -5 0 -10 -7
-10 -15 0 -8 5 -15 10 -15 6 0 10 -20 10 -44 0 -69 14 -96 50 -96 34 0 42 25
10 33 -17 4 -20 14 -20 56 0 44 3 51 20 51 11 0 20 7 20 15 0 8 -9 15 -20 15
-15 0 -20 7 -20 25 0 25 -4 28 -27 18z"/>
<path d="M1207 2983 c-4 -3 -7 -12 -7 -19 0 -9 7 -10 29 -1 23 8 33 8 45 -2
25 -21 19 -29 -26 -38 -49 -10 -74 -43 -57 -75 14 -26 37 -33 70 -21 20 8 29
8 32 0 2 -6 11 -8 21 -4 16 6 17 16 13 72 -2 35 -10 71 -17 80 -13 15 -90 22
-103 8z m83 -96 c0 -18 -21 -37 -41 -37 -22 0 -33 16 -25 35 7 19 66 20 66 2z"/>
<path d="M1380 2973 c-1 -10 -2 -43 -4 -73 -3 -64 1 -80 20 -80 10 0 14 14 14
51 0 60 13 89 40 89 11 0 20 7 20 15 0 18 -31 20 -48 3 -9 -9 -12 -9 -12 0 0
19 -30 14 -30 -5z"/>
<path d="M1710 2905 c0 -69 3 -85 15 -85 12 0 15 16 15 85 0 69 -3 85 -15 85
-12 0 -15 -16 -15 -85z"/>
<path d="M1800 2905 c0 -69 3 -85 15 -85 12 0 15 13 15 58 0 44 5 63 18 75 23
21 27 21 46 1 11 -10 16 -34 16 -75 0 -46 3 -59 15 -59 12 0 15 15 15 73 0 43
-5 78 -12 85 -15 15 -53 16 -79 2 -13 -7 -19 -7 -19 0 0 5 -7 10 -15 10 -12 0
-15 -16 -15 -85z"/>
<path d="M2340 2904 c0 -76 2 -85 18 -82 14 3 17 16 20 86 3 77 2 82 -18 82
-19 0 -20 -6 -20 -86z"/>
<path d="M2430 2905 c0 -69 3 -85 15 -85 12 0 15 13 15 55 0 66 26 103 60 85
17 -9 20 -21 20 -75 0 -58 2 -65 20 -65 18 0 20 7 20 63 0 74 -18 107 -59 107
-15 0 -33 -6 -40 -12 -11 -10 -14 -10 -18 0 -3 6 -11 12 -19 12 -11 0 -14 -18
-14 -85z"/>
<path d="M2716 2977 c-29 -21 -17 -59 27 -80 52 -24 50 -50 -3 -45 -32 3 -40
0 -38 -12 2 -8 14 -16 27 -18 87 -13 121 68 40 97 -43 15 -37 47 9 45 21 -1
32 3 32 12 0 18 -69 19 -94 1z"/>
<path d="M3077 2978 c-42 -33 -41 -125 3 -148 35 -19 100 -9 100 14 0 8 -12
11 -35 8 -37 -4 -65 11 -65 34 0 10 16 14 61 14 l61 0 -7 28 c-3 15 -14 35
-22 45 -19 20 -72 23 -96 5z m71 -20 c24 -24 13 -38 -28 -38 -43 0 -49 9 -24
34 19 19 36 20 52 4z"/>
<path d="M3390 2984 c0 -4 10 -43 22 -86 19 -66 26 -78 42 -76 14 2 24 18 34
56 8 28 18 52 22 52 4 0 13 -24 21 -52 11 -41 19 -53 33 -53 15 0 24 16 43 75
27 89 27 90 8 90 -8 0 -18 -17 -25 -42 -21 -83 -26 -88 -39 -38 -7 25 -14 53
-17 63 -3 9 -13 17 -23 17 -13 0 -21 -14 -31 -55 -7 -31 -17 -58 -21 -60 -4
-3 -13 21 -21 53 -9 38 -19 58 -31 60 -9 2 -17 0 -17 -4z"/>
<path d="M3683 2975 c-30 -21 -39 -74 -19 -113 25 -48 84 -58 130 -21 34 27
37 98 6 129 -24 24 -86 27 -117 5z m87 -25 c38 -38 19 -100 -30 -100 -50 0
-70 75 -28 104 29 20 34 20 58 -4z"/>
<path d="M3882 2967 c-33 -35 -30 -99 4 -126 28 -22 74 -27 103 -11 43 22 50
102 14 143 -24 26 -94 23 -121 -6z m86 -13 c25 -17 31 -71 10 -92 -14 -14 -47
-15 -67 -3 -22 14 -19 80 4 97 24 17 26 17 53 -2z"/>
<path d="M1496 2935 c-3 -9 1 -18 10 -22 19 -7 39 11 30 26 -10 16 -33 13 -40
-4z"/>
<path d="M2627 2944 c-14 -15 -6 -34 14 -34 14 0 19 5 17 17 -3 18 -20 27 -31
17z"/>
<path d="M3327 2944 c-14 -15 -6 -34 14 -34 14 0 19 5 17 17 -3 18 -20 27 -31
17z"/>
<path d="M3008 2523 c6 -2 18 -2 25 0 6 3 1 5 -13 5 -14 0 -19 -2 -12 -5z"/>
<path d="M3876 2515 c-8 -22 1 -35 25 -35 15 0 20 6 17 22 -4 27 -33 36 -42
13z"/>
<path d="M1054 2516 c-9 -24 4 -48 23 -44 12 2 18 12 18 28 0 29 -32 41 -41
16z"/>
<path d="M1390 2480 c0 -5 6 -10 14 -10 8 0 18 5 21 10 3 6 -3 10 -14 10 -12
0 -21 -4 -21 -10z"/>
<path d="M1514 2515 c-8 -21 3 -45 20 -45 20 0 29 16 21 40 -7 23 -33 27 -41
5z"/>
<path d="M1650 2520 c0 -5 9 -10 20 -10 11 0 20 5 20 10 0 6 -9 10 -20 10 -11
0 -20 -4 -20 -10z"/>
<path d="M2337 2524 c-13 -13 -7 -42 10 -48 21 -8 36 6 31 30 -3 19 -29 30
-41 18z"/>
<path d="M1240 2270 c0 -17 5 -21 28 -18 16 2 27 9 27 18 0 9 -11 16 -27 18
-23 3 -28 -1 -28 -18z"/>
<path d="M3076 2244 c-19 -18 -21 -55 -4 -72 7 -7 24 -12 38 -12 14 0 31 5 38
12 28 28 2 88 -38 88 -10 0 -26 -7 -34 -16z"/>
<path d="M1405 2230 c-4 -6 5 -10 20 -10 15 0 24 4 20 10 -3 6 -12 10 -20 10
-8 0 -17 -4 -20 -10z"/>
<path d="M1654 2216 c-9 -24 4 -48 23 -44 24 4 24 52 0 56 -9 2 -20 -4 -23
-12z"/>
<path d="M1775 2230 c-4 -6 5 -10 20 -10 15 0 24 4 20 10 -3 6 -12 10 -20 10
-8 0 -17 -4 -20 -10z"/>
<path d="M3254 2185 c-9 -23 3 -45 26 -45 16 0 20 7 20 30 0 23 -4 30 -20 30
-11 0 -23 -7 -26 -15z"/>
<path d="M3385 2200 c-3 -5 3 -10 15 -10 12 0 18 5 15 10 -3 6 -10 10 -15 10
-5 0 -12 -4 -15 -10z"/>
<path d="M3775 2200 c-4 -6 6 -10 22 -10 22 0 25 2 13 10 -19 12 -27 12 -35 0z"/>
<path d="M2445 2290 c-11 -5 -30 -9 -42 -9 -24 -1 -63 -29 -63 -45 0 -5 -8
-19 -17 -30 l-18 -21 25 20 c14 11 34 25 46 31 21 12 133 39 147 36 4 -1 7 5
7 13 0 17 -51 20 -85 5z"/>
<path d="M2540 2286 c0 -9 7 -12 21 -9 16 4 17 8 7 14 -19 13 -28 11 -28 -5z"/>
<path d="M2625 2270 c27 -12 43 -12 25 0 -8 5 -22 9 -30 9 -10 0 -8 -3 5 -9z"/>
<path d="M2155 2049 c-4 -6 -5 -12 -2 -15 2 -3 7 2 10 11 7 17 1 20 -8 4z"/>
<path d="M2992 1945 c12 -27 28 -34 28 -12 0 14 -20 37 -32 37 -4 0 -2 -11 4
-25z"/>
<path d="M2084 1842 c-3 -15 -10 -37 -15 -50 -5 -13 -12 -82 -15 -155 -4 -73
-10 -139 -14 -147 -5 -8 -19 -15 -32 -15 -21 0 -23 -4 -21 -49 2 -57 24 -140
34 -125 3 6 11 -3 17 -19 6 -17 20 -40 32 -52 12 -12 19 -24 16 -27 -4 -5 -15
3 -51 35 -18 16 -19 6 -4 -39 17 -49 29 -62 45 -48 21 17 18 -10 -3 -34 -17
-18 -17 -20 4 -36 30 -25 83 -146 91 -211 7 -52 6 -56 -20 -78 -18 -15 -28
-34 -28 -51 0 -14 -15 -58 -34 -97 -35 -75 -40 -78 -151 -116 -33 -12 -105
-47 -160 -79 -55 -31 -120 -62 -145 -69 -25 -6 -65 -22 -90 -35 -25 -13 -70
-31 -100 -40 -30 -10 -70 -24 -88 -31 -65 -28 -338 -254 -307 -254 6 0 4 -4
-3 -9 -8 -5 0 -8 23 -9 19 -1 35 2 35 6 0 12 76 126 93 141 9 7 80 45 159 85
98 50 175 81 244 99 116 31 143 33 64 6 -55 -19 -55 -19 -13 -14 24 3 62 11
85 19 110 36 228 69 232 65 2 -2 6 -28 10 -56 6 -45 4 -52 -9 -47 -23 9 -18
-1 20 -43 55 -60 47 -79 -23 -57 -26 7 -58 13 -72 13 -21 -1 -21 -2 -5 -6 11
-3 38 -13 60 -23 22 -10 49 -20 60 -22 17 -3 21 -15 28 -73 5 -39 11 -76 13
-82 2 -10 44 -13 166 -13 l163 0 -25 20 c-32 25 -20 25 30 0 31 -16 59 -20
138 -20 64 0 102 4 110 12 10 10 17 10 31 1 14 -9 21 -9 30 0 21 21 11 36 -46
76 -32 22 -72 52 -89 67 -16 15 -50 37 -74 50 -25 13 -39 24 -32 24 6 0 12 7
12 15 0 17 6 18 76 15 82 -3 136 38 152 115 6 27 9 52 6 56 -2 4 8 21 23 37
16 16 39 44 53 62 35 45 62 70 76 70 7 0 17 12 23 28 6 15 31 52 55 82 24 30
42 58 39 62 -2 4 3 5 11 2 12 -5 13 -11 4 -32 -5 -15 -10 -76 -10 -137 1 -142
-21 -303 -49 -356 -23 -46 -33 -99 -19 -99 6 0 10 -6 10 -14 0 -19 19 -31 31
-19 6 6 2 26 -10 53 -18 41 -19 76 0 64 5 -3 16 -31 25 -62 9 -31 19 -63 21
-70 4 -8 0 -10 -11 -6 -9 3 -24 3 -33 0 -13 -5 -14 -9 -4 -19 9 -9 -6 -14 -71
-22 -46 -5 -83 -14 -83 -20 0 -5 -4 -16 -8 -22 -6 -10 15 -13 97 -13 99 0 106
1 106 20 0 24 4 24 111 5 96 -16 170 -20 217 -10 40 9 40 15 1 37 -17 10 -28
22 -25 27 3 5 0 14 -8 20 -11 9 -15 9 -19 -1 -5 -10 -9 -9 -19 3 -7 9 -18 14
-24 12 -7 -2 -19 4 -28 13 -9 9 -19 14 -22 11 -3 -2 -26 2 -51 9 -25 8 -58 14
-74 14 -26 0 -27 1 -18 38 5 20 8 51 8 67 0 26 -1 28 -12 14 -17 -22 -15 171
3 269 11 61 11 82 0 125 -8 29 -14 63 -16 77 -3 48 -4 51 -12 46 -26 -16 31
175 64 214 7 8 16 33 19 55 4 22 12 48 17 59 7 12 7 16 0 12 -6 -3 -15 -21
-22 -40 -6 -19 -21 -38 -35 -44 -14 -7 -25 -20 -25 -30 0 -9 -13 -29 -30 -44
-16 -14 -27 -28 -24 -31 3 -3 -3 -12 -15 -19 -12 -7 -21 -18 -21 -25 0 -7 -5
-13 -11 -13 -6 0 -17 -7 -26 -15 -8 -8 -19 -12 -24 -9 -6 3 -21 -5 -35 -19
-14 -14 -40 -33 -59 -42 -19 -9 -35 -22 -35 -30 0 -8 -4 -17 -10 -20 -6 -4 -7
1 -3 11 4 12 3 15 -5 10 -7 -4 -12 -17 -12 -28 0 -12 -3 -19 -6 -15 -3 3 -6
33 -5 66 0 34 -3 61 -8 61 -5 0 -12 12 -16 27 -6 25 -8 26 -19 11 -11 -15 -14
-13 -24 16 -15 42 -15 51 1 37 21 -16 28 -1 12 23 -22 30 -17 45 5 17 15 -17
20 -19 20 -8 0 9 -5 19 -10 22 -6 4 -8 10 -5 15 7 12 -58 19 -72 8 -7 -5 -28
-8 -47 -5 -36 5 -46 -5 -46 -41 0 -12 3 -13 8 -5 5 8 13 9 22 3 8 -5 11 -12 7
-16 -4 -4 -2 -13 4 -20 7 -9 7 -24 0 -48 -5 -22 -6 -36 0 -36 5 0 9 10 10 23
l0 22 9 -23 c6 -13 6 -32 0 -46 -7 -19 -14 -22 -36 -18 -17 3 -25 1 -20 -6 4
-6 -2 -8 -16 -4 -33 8 -69 33 -62 43 3 5 -13 27 -35 50 -23 22 -41 44 -41 50
0 6 -4 7 -10 4 -5 -3 -10 3 -10 14 0 19 -33 62 -45 60 -26 -3 -43 82 -24 113
6 9 9 5 9 -12 0 -20 2 -22 10 -10 5 8 9 33 9 55 0 22 -3 34 -6 28 -2 -7 -11
-13 -18 -13 -8 0 -19 -8 -25 -17 -10 -16 -11 -16 -6 -1 3 9 0 18 -6 20 -12 4
-24 140 -12 137 19 -3 34 1 34 10 0 5 -8 8 -17 7 -9 -2 -28 9 -41 23 -19 21
-23 33 -19 65 3 21 11 44 18 50 9 8 10 8 5 -1 -5 -9 3 -10 27 -6 19 3 45 0 58
-7 30 -17 75 -15 122 5 50 21 47 28 -8 19 -25 -3 -53 -3 -62 1 -15 6 -12 10
17 20 43 17 124 19 115 4 -4 -5 9 -3 28 5 20 8 37 12 40 10 6 -6 16 66 13 96
-2 21 -9 26 -47 32 -56 10 -141 2 -151 -15 -13 -20 -129 -11 -153 13 -13 14
-15 20 -6 20 11 0 11 3 1 15 -10 12 -8 16 11 24 15 6 18 10 8 10 -9 1 -24 17
-35 36 -10 19 -24 35 -31 35 -16 0 -17 15 -3 40 7 13 6 19 -5 24 -10 4 -17 -3
-21 -22z m250 -228 c33 -13 14 -25 -33 -22 -38 2 -47 6 -39 16 11 13 46 16 72
6z m237 -617 c-10 -9 -11 -8 -5 6 3 10 9 15 12 12 3 -3 0 -11 -7 -18z m-12
-89 c10 -30 9 -31 -4 -14 -8 11 -15 26 -15 33 0 22 8 14 19 -19z m-600 -422
c-13 -12 -34 -28 -46 -35 -13 -6 -23 -18 -23 -26 0 -8 -6 -15 -14 -15 -11 0
-12 7 -7 27 5 18 21 33 51 48 59 30 68 30 39 1z m89 -62 l57 -19 -43 -3 c-24
-2 -49 2 -57 8 -10 8 -14 7 -18 -2 -3 -7 -5 5 -5 27 0 22 2 33 5 24 2 -10 28
-25 61 -35z m237 -20 c28 -37 59 -79 71 -95 11 -16 34 -41 50 -56 l29 -27 -25
-7 c-14 -4 -37 -7 -52 -8 -24 -1 -28 3 -29 27 -2 39 -3 42 -26 92 -23 52 -38
66 -73 73 -25 4 -25 4 3 6 33 1 34 8 5 38 -12 13 -17 23 -12 23 5 0 32 -30 59
-66z m-55 -262 c0 -26 -4 -33 -17 -30 -20 4 -28 37 -18 77 6 25 7 25 21 7 8
-11 14 -35 14 -54z m275 30 c-3 -3 -11 0 -18 7 -9 10 -8 11 6 5 10 -3 15 -9
12 -12z"/>
<path d="M2168 1773 c7 -3 16 -2 19 1 4 3 -2 6 -13 5 -11 0 -14 -3 -6 -6z"/>
<path d="M2643 1673 c-38 -15 -42 -20 -36 -42 16 -70 38 -81 161 -82 48 0 96
-4 106 -8 11 -4 30 -6 43 -3 l23 4 -22 23 c-35 34 -62 45 -112 45 -45 0 -61
12 -31 24 17 6 20 32 6 40 -24 15 -99 14 -138 -1z"/>
<path d="M3046 1682 c-3 -5 2 -37 10 -73 9 -35 18 -83 21 -106 5 -44 19 -53
42 -30 10 10 16 7 31 -13 10 -14 21 -23 23 -20 5 5 10 53 8 83 -1 22 -29 22
-53 1 -16 -15 -18 -15 -24 -1 -3 9 1 24 11 33 9 10 13 23 9 33 -15 38 -25 82
-19 91 10 16 -18 7 -33 -10 -8 -8 -11 -10 -8 -3 7 13 -10 28 -18 15z"/>
<path d="M2680 1535 c0 -1 11 -10 24 -19 29 -18 109 -38 100 -25 -3 5 5 10 18
10 13 1 5 5 -17 9 -22 4 -59 12 -82 18 -24 5 -43 9 -43 7z"/>
<path d="M2442 1363 c-34 -50 -39 -63 -25 -61 15 3 18 -3 15 -40 -2 -24 2 -50
8 -58 7 -8 9 -14 6 -14 -4 0 -1 -10 5 -22 11 -21 11 -22 -4 -9 -15 12 -23 9
-66 -20 -27 -19 -46 -39 -44 -46 8 -20 86 -26 174 -14 45 6 108 11 140 11 61
0 144 15 168 30 12 7 12 11 2 24 -14 16 -49 18 -68 3 -8 -5 -33 -6 -60 -1 -27
4 -63 8 -82 8 -20 1 -36 7 -39 15 -3 8 0 11 7 7 6 -4 28 11 50 33 22 23 44 41
49 41 8 0 32 43 32 58 0 4 -16 16 -35 26 -28 15 -37 16 -49 7 -19 -16 -72 -5
-106 21 -25 20 -25 20 -39 -1 -24 -38 -33 -22 -10 19 36 63 18 53 -29 -17z
m53 -203 c3 -5 1 -10 -4 -10 -6 0 -11 5 -11 10 0 6 2 10 4 10 3 0 8 -4 11 -10z"/>
<path d="M3086 1422 c-7 -11 12 -72 27 -87 6 -7 7 5 3 35 -7 47 -20 69 -30 52z"/>
<path d="M2752 1318 c21 -18 55 -45 77 -60 22 -15 50 -44 61 -65 l21 -38 -5
39 c-3 21 -6 39 -8 40 -2 1 -36 26 -76 55 -86 61 -122 77 -70 29z"/>
<path d="M2212 1287 c-7 -8 -6 -18 3 -31 13 -17 14 -16 13 13 -1 35 -2 36 -16
18z"/>
<path d="M2660 1020 c0 -5 5 -10 11 -10 5 0 7 -6 3 -12 -5 -10 -4 -10 6 -1 7
6 9 16 6 22 -9 14 -26 14 -26 1z"/>
<path d="M2506 837 c3 -10 9 -15 12 -12 3 3 0 11 -7 18 -10 9 -11 8 -5 -6z"/>
<path d="M3045 670 c15 -55 26 -168 22 -212 -2 -26 0 -45 5 -42 11 7 10 -10
-1 -21 -8 -8 5 -159 15 -173 1 -2 17 4 35 13 19 8 26 13 17 10 -12 -3 -18 1
-18 12 0 9 3 14 6 10 10 -10 54 82 54 114 0 17 -6 32 -15 36 -16 6 -51 63 -39
63 4 0 1 6 -5 14 -9 11 -9 15 1 19 10 4 10 6 1 6 -7 1 -13 10 -13 20 0 11 -4
22 -9 26 -6 3 -8 14 -6 25 2 10 -4 25 -12 32 -9 7 -22 26 -30 43 -11 24 -13
25 -8 5z"/>
<path d="M3136 557 c2 -7 14 -13 25 -14 21 -2 21 -1 3 12 -24 18 -35 19 -28 2z"/>
<path d="M3244 515 c11 -8 29 -15 40 -15 16 1 12 5 -13 15 -42 19 -52 19 -27
0z"/>
<path d="M3304 488 c-4 -7 -3 -8 5 -4 6 4 23 -2 37 -13 15 -12 34 -21 43 -21
9 0 -2 12 -24 25 -45 28 -51 29 -61 13z"/>
<path d="M3430 450 c8 -5 20 -10 25 -10 6 0 3 5 -5 10 -8 5 -19 10 -25 10 -5
0 -3 -5 5 -10z"/>
<path d="M3277 429 c5 -5 34 -14 64 -19 30 -5 79 -17 109 -25 30 -8 68 -14 85
-14 19 1 23 3 10 5 -11 3 -60 14 -110 25 -158 35 -167 37 -158 28z"/>
<path d="M3509 420 c25 -12 73 -26 107 -32 38 -8 58 -16 51 -20 -7 -5 4 -6 23
-3 49 9 48 12 -12 23 -110 22 -149 32 -167 42 -11 5 -26 10 -33 10 -7 0 7 -9
31 -20z"/>
<path d="M3603 363 c9 -2 25 -2 35 0 9 3 1 5 -18 5 -19 0 -27 -2 -17 -5z"/>
<path d="M3741 366 c9 -8 169 -85 169 -81 0 8 -145 85 -159 85 -8 0 -12 -2
-10 -4z"/>
<path d="M4080 15 c0 -8 4 -15 8 -15 5 0 9 7 9 15 0 8 -4 15 -9 15 -4 0 -8 -7
-8 -15z"/>
</g>
</svg>
